<?xml version="1.0" standalone="no"?>
<!DOCTYPE svg PUBLIC "-//W3C//DTD SVG 20010904//EN"
 "http://www.w3.org/TR/2001/REC-SVG-20010904/DTD/svg10.dtd">
<svg version="1.0" xmlns="http://www.w3.org/2000/svg"
 width="100px" height="100px" viewBox="0 0 1585.000000 1101.000000"
 preserveAspectRatio="xMidYMid meet">

<g transform="translate(0.000000,1101.000000) scale(0.100000,-0.100000)"
fill="#000000" stroke="none">
<path d="M4830 11004 c-412 -36 -696 -115 -1027 -283 -259 -132 -472 -290
-683 -507 -438 -450 -688 -1018 -730 -1652 -24 -375 48 -683 255 -1092 105
-205 197 -357 455 -745 349 -524 420 -652 499 -892 96 -291 114 -550 52 -727
-12 -35 -16 -65 -12 -90 l6 -37 99 100 99 99 -11 44 c-6 24 -14 88 -17 143
-11 177 -52 372 -131 616 -91 284 -162 422 -444 869 -408 648 -539 921 -618
1290 -24 114 -26 143 -26 340 1 146 6 250 17 323 52 343 162 659 325 934 377
637 977 1040 1690 1133 104 14 401 14 507 0 348 -45 658 -157 935 -338 690
-451 1102 -1222 1102 -2067 0 -329 -57 -574 -208 -893 -69 -147 -124 -243
-310 -543 -270 -435 -367 -617 -462 -859 -79 -205 -148 -470 -126 -488 12 -11
274 -96 278 -91 2 2 16 47 31 99 58 205 198 514 336 745 39 66 156 249 260
407 230 348 311 483 394 653 146 300 211 544 222 840 27 698 -255 1406 -761
1910 -480 479 -1100 744 -1776 759 -96 2 -195 2 -220 0z"/>
<path d="M4753 5132 l-1163 -416 0 -333 0 -332 78 28 c42 15 566 203 1165 416
l1087 388 0 334 c0 183 -1 333 -2 332 -2 0 -526 -188 -1165 -417z"/>
<path d="M13870 5319 c-440 -28 -795 -189 -1085 -491 -242 -251 -381 -548
-430 -917 -17 -124 -19 -410 -5 -531 70 -575 383 -1047 848 -1280 332 -165
808 -214 1250 -129 810 156 1294 865 1232 1802 -32 475 -193 839 -497 1127
-328 310 -779 454 -1313 419z m450 -755 c209 -73 335 -217 424 -484 87 -262
89 -624 4 -890 -124 -390 -348 -553 -738 -537 -147 6 -214 22 -329 79 -188 91
-342 319 -422 624 -21 80 -24 110 -24 289 0 172 3 212 22 287 89 350 270 566
533 637 111 29 112 30 285 27 149 -2 166 -4 245 -32z"/>
<path d="M210 3625 l0 -1695 415 0 415 0 2 997 3 997 668 -982 c367 -541 667
-990 667 -998 0 -12 60 -14 423 -14 l422 0 -3 1695 -2 1695 -420 0 -420 0 -2
-981 -3 -982 -665 981 -665 982 -417 0 -418 0 0 -1695z"/>
<path d="M7395 5299 c-287 -50 -522 -139 -728 -276 -95 -63 -271 -239 -334
-333 -214 -321 -309 -756 -274 -1258 56 -795 406 -1272 1063 -1447 209 -56
197 -55 1101 -55 l837 0 0 1040 0 1040 -1045 0 c-887 0 -1045 2 -1045 14 0 32
45 157 83 231 55 105 165 218 257 263 140 67 122 66 799 72 l615 5 167 363
167 362 -777 -1 c-721 -1 -784 -2 -886 -20z m-309 -1716 l134 -288 500 -3 500
-2 0 -316 0 -315 -392 3 c-345 4 -400 6 -448 22 -95 31 -153 67 -221 135 -146
146 -229 425 -229 769 0 136 10 295 18 288 2 -3 65 -135 138 -293z"/>
<path d="M9287 5313 c-4 -3 -7 -766 -7 -1695 l0 -1688 415 0 415 0 2 865 3
865 599 -865 599 -865 503 0 c277 0 504 2 504 4 0 3 -187 281 -416 618 l-415
612 78 27 c274 92 461 253 574 494 100 214 133 521 84 781 -89 471 -448 789
-953 843 -112 12 -1974 16 -1985 4z m1904 -764 c108 -51 169 -141 189 -278 25
-179 -41 -328 -177 -397 l-58 -29 -512 -3 -513 -3 0 371 0 371 508 -3 507 -3
56 -26z"/>
<path d="M4805 4109 c-566 -202 -1063 -380 -1102 -395 l-73 -26 0 -329 c0
-181 3 -329 8 -329 4 0 501 176 1105 392 l1097 391 0 334 c0 183 -1 333 -2
332 -2 0 -466 -167 -1033 -370z"/>
<path d="M4668 3018 l-1038 -371 0 -328 c0 -257 3 -329 13 -329 6 0 476 166
1042 369 l1030 368 3 331 c1 183 -1 332 -5 331 -5 0 -475 -167 -1045 -371z"/>
<path d="M10276 1228 c-8 -13 -35 -58 -60 -100 l-45 -78 34 0 c31 0 41 8 110
94 41 51 75 96 75 100 0 3 -22 6 -50 6 -40 0 -52 -4 -64 -22z"/>

</g>
</svg>
